<svg width="20" height="17" viewBox="0 0 20 17" fill="none" xmlns="http://www.w3.org/2000/svg">
<path d="M9.99984 2.15022C12.1593 0.215364 15.4804 0.285555 17.5556 2.36079C19.7035 4.50867 19.7035 7.99108 17.5556 10.139L11.2962 16.3984C10.5802 17.1143 9.41944 17.1143 8.70348 16.3984L2.44408 10.139C0.2962 7.99108 0.2962 4.50867 2.44408 2.36079C4.51932 0.285555 7.84033 0.215364 9.99984 2.15022ZM11.0738 3.65715L10.648 4.08291C10.29 4.44089 9.70964 4.44089 9.35166 4.08291L8.9259 3.65715C7.49397 2.22523 5.17237 2.22523 3.74045 3.65715C2.30852 5.08908 2.30852 7.41068 3.74045 8.8426L9.99984 15.102L16.2592 8.8426C17.6912 7.41068 17.6912 5.08908 16.2592 3.65715C14.8273 2.22523 12.5057 2.22523 11.0738 3.65715Z" fill="#4F4F4F"/>
</svg>
